<mxfile host="Electron" agent="Mozilla/5.0 (X11; Linux x86_64) AppleWebKit/537.36 (KHTML, like Gecko) draw.io/24.7.17 Chrome/128.0.6613.36 Electron/32.0.1 Safari/537.36" version="24.7.17">
  <diagram name="Page-1" id="lANqghMFtDQMv4SViWL5">
    <mxGraphModel dx="3243" dy="1198" grid="1" gridSize="10" guides="1" tooltips="1" connect="1" arrows="1" fold="1" page="1" pageScale="1" pageWidth="1169" pageHeight="827" math="0" shadow="0">
      <root>
        <mxCell id="0" />
        <mxCell id="1" parent="0" />
        <mxCell id="a2WeZFBfRJ3l1TX29KsL-1" value="&lt;font style=&quot;font-size: 16px;&quot;&gt;R1&lt;/font&gt;&lt;div&gt;&lt;font style=&quot;font-size: 16px;&quot;&gt;Encapsulation&lt;/font&gt;&lt;/div&gt;" style="image;html=1;image=img/lib/clip_art/networking/Router_Icon_128x128.png" parent="1" vertex="1">
          <mxGeometry x="140" y="480" width="80" height="80" as="geometry" />
        </mxCell>
        <mxCell id="a2WeZFBfRJ3l1TX29KsL-2" value="&lt;font style=&quot;font-size: 16px;&quot;&gt;R2&lt;/font&gt;&lt;div&gt;&lt;font style=&quot;font-size: 16px;&quot;&gt;Transit&lt;/font&gt;&lt;/div&gt;" style="image;html=1;image=img/lib/clip_art/networking/Router_Icon_128x128.png" parent="1" vertex="1">
          <mxGeometry x="380" y="480" width="80" height="80" as="geometry" />
        </mxCell>
        <mxCell id="a2WeZFBfRJ3l1TX29KsL-4" value="&lt;font style=&quot;font-size: 16px;&quot;&gt;R4&lt;/font&gt;&lt;div&gt;&lt;font style=&quot;font-size: 16px;&quot;&gt;Decapsulation&lt;/font&gt;&lt;/div&gt;" style="image;html=1;image=img/lib/clip_art/networking/Router_Icon_128x128.png" parent="1" vertex="1">
          <mxGeometry x="860" y="480" width="80" height="80" as="geometry" />
        </mxCell>
        <mxCell id="a2WeZFBfRJ3l1TX29KsL-7" value="" style="group" parent="1" vertex="1" connectable="0">
          <mxGeometry x="40" y="505" width="60" height="30" as="geometry" />
        </mxCell>
        <mxCell id="a2WeZFBfRJ3l1TX29KsL-5" value="&lt;font style=&quot;font-size: 16px;&quot;&gt;H&lt;/font&gt;" style="rounded=0;whiteSpace=wrap;html=1;" parent="a2WeZFBfRJ3l1TX29KsL-7" vertex="1">
          <mxGeometry width="30" height="30" as="geometry" />
        </mxCell>
        <mxCell id="a2WeZFBfRJ3l1TX29KsL-6" value="&lt;span style=&quot;font-size: 16px;&quot;&gt;P&lt;/span&gt;" style="rounded=0;whiteSpace=wrap;html=1;" parent="a2WeZFBfRJ3l1TX29KsL-7" vertex="1">
          <mxGeometry x="30" width="30" height="30" as="geometry" />
        </mxCell>
        <mxCell id="a2WeZFBfRJ3l1TX29KsL-9" value="" style="endArrow=classic;html=1;rounded=0;exitX=1;exitY=0.5;exitDx=0;exitDy=0;strokeColor=#3333FF;strokeWidth=2;" parent="1" source="a2WeZFBfRJ3l1TX29KsL-6" target="a2WeZFBfRJ3l1TX29KsL-1" edge="1">
          <mxGeometry width="50" height="50" relative="1" as="geometry">
            <mxPoint x="540" y="600" as="sourcePoint" />
            <mxPoint x="590" y="550" as="targetPoint" />
          </mxGeometry>
        </mxCell>
        <mxCell id="a2WeZFBfRJ3l1TX29KsL-10" value="" style="endArrow=classic;html=1;rounded=0;exitX=1;exitY=0.5;exitDx=0;exitDy=0;strokeColor=#3333FF;strokeWidth=2;entryX=0;entryY=0.5;entryDx=0;entryDy=0;" parent="1" source="a2WeZFBfRJ3l1TX29KsL-1" target="a2WeZFBfRJ3l1TX29KsL-2" edge="1">
          <mxGeometry width="50" height="50" relative="1" as="geometry">
            <mxPoint x="110" y="530" as="sourcePoint" />
            <mxPoint x="150" y="530" as="targetPoint" />
          </mxGeometry>
        </mxCell>
        <mxCell id="a2WeZFBfRJ3l1TX29KsL-11" value="" style="endArrow=classic;html=1;rounded=0;exitX=1;exitY=0.5;exitDx=0;exitDy=0;strokeColor=#3333FF;strokeWidth=2;entryX=0;entryY=0.5;entryDx=0;entryDy=0;" parent="1" source="a2WeZFBfRJ3l1TX29KsL-2" target="a2WeZFBfRJ3l1TX29KsL-3" edge="1">
          <mxGeometry width="50" height="50" relative="1" as="geometry">
            <mxPoint x="230" y="530" as="sourcePoint" />
            <mxPoint x="350" y="530" as="targetPoint" />
          </mxGeometry>
        </mxCell>
        <mxCell id="a2WeZFBfRJ3l1TX29KsL-12" value="" style="endArrow=classic;html=1;rounded=0;exitX=1;exitY=0.5;exitDx=0;exitDy=0;strokeColor=#3333FF;strokeWidth=2;entryX=0;entryY=0.5;entryDx=0;entryDy=0;" parent="1" source="a2WeZFBfRJ3l1TX29KsL-3" target="a2WeZFBfRJ3l1TX29KsL-4" edge="1">
          <mxGeometry width="50" height="50" relative="1" as="geometry">
            <mxPoint x="430" y="530" as="sourcePoint" />
            <mxPoint x="550" y="530" as="targetPoint" />
          </mxGeometry>
        </mxCell>
        <mxCell id="a2WeZFBfRJ3l1TX29KsL-13" value="" style="group" parent="1" vertex="1" connectable="0">
          <mxGeometry x="980" y="505" width="60" height="30" as="geometry" />
        </mxCell>
        <mxCell id="a2WeZFBfRJ3l1TX29KsL-14" value="&lt;font style=&quot;font-size: 16px;&quot;&gt;H&lt;/font&gt;" style="rounded=0;whiteSpace=wrap;html=1;" parent="a2WeZFBfRJ3l1TX29KsL-13" vertex="1">
          <mxGeometry width="30" height="30" as="geometry" />
        </mxCell>
        <mxCell id="a2WeZFBfRJ3l1TX29KsL-15" value="&lt;span style=&quot;font-size: 16px;&quot;&gt;P&lt;/span&gt;" style="rounded=0;whiteSpace=wrap;html=1;" parent="a2WeZFBfRJ3l1TX29KsL-13" vertex="1">
          <mxGeometry x="30" width="30" height="30" as="geometry" />
        </mxCell>
        <mxCell id="a2WeZFBfRJ3l1TX29KsL-22" value="" style="group;fillColor=#FF3333;strokeColor=none;" parent="1" vertex="1" connectable="0">
          <mxGeometry x="230" y="530" width="140" height="30" as="geometry" />
        </mxCell>
        <mxCell id="a2WeZFBfRJ3l1TX29KsL-18" value="&lt;font style=&quot;font-size: 16px;&quot;&gt;H&lt;/font&gt;" style="rounded=0;whiteSpace=wrap;html=1;" parent="a2WeZFBfRJ3l1TX29KsL-22" vertex="1">
          <mxGeometry width="30" height="30" as="geometry" />
        </mxCell>
        <mxCell id="a2WeZFBfRJ3l1TX29KsL-19" value="&lt;span style=&quot;font-size: 16px;&quot;&gt;P&lt;/span&gt;" style="rounded=0;whiteSpace=wrap;html=1;movable=1;resizable=1;rotatable=1;deletable=1;editable=1;locked=0;connectable=1;" parent="a2WeZFBfRJ3l1TX29KsL-22" vertex="1">
          <mxGeometry x="110" width="30" height="30" as="geometry" />
        </mxCell>
        <mxCell id="a2WeZFBfRJ3l1TX29KsL-20" value="IOAM&lt;div&gt;H&lt;/div&gt;" style="rounded=0;whiteSpace=wrap;html=1;fillColor=#FFB570;" parent="a2WeZFBfRJ3l1TX29KsL-22" vertex="1">
          <mxGeometry x="30" width="40" height="30" as="geometry" />
        </mxCell>
        <mxCell id="a2WeZFBfRJ3l1TX29KsL-21" value="DEX&lt;div&gt;H&lt;/div&gt;" style="rounded=0;whiteSpace=wrap;html=1;fillColor=#FF6666;" parent="a2WeZFBfRJ3l1TX29KsL-22" vertex="1">
          <mxGeometry x="70" width="40" height="30" as="geometry" />
        </mxCell>
        <mxCell id="a2WeZFBfRJ3l1TX29KsL-3" value="&lt;font style=&quot;font-size: 16px;&quot;&gt;R3&lt;/font&gt;&lt;div&gt;&lt;font style=&quot;font-size: 16px;&quot;&gt;Transit&lt;/font&gt;&lt;/div&gt;" style="image;html=1;image=img/lib/clip_art/networking/Router_Icon_128x128.png" parent="1" vertex="1">
          <mxGeometry x="620" y="480" width="80" height="80" as="geometry" />
        </mxCell>
        <mxCell id="a2WeZFBfRJ3l1TX29KsL-35" value="" style="endArrow=classic;html=1;rounded=0;exitX=1;exitY=0.5;exitDx=0;exitDy=0;strokeColor=#3333FF;strokeWidth=2;" parent="1" source="a2WeZFBfRJ3l1TX29KsL-4" target="a2WeZFBfRJ3l1TX29KsL-14" edge="1">
          <mxGeometry width="50" height="50" relative="1" as="geometry">
            <mxPoint x="710" y="530" as="sourcePoint" />
            <mxPoint x="870" y="530" as="targetPoint" />
          </mxGeometry>
        </mxCell>
        <mxCell id="a2WeZFBfRJ3l1TX29KsL-41" value="" style="group;fillColor=#FF3333;strokeColor=none;" parent="1" vertex="1" connectable="0">
          <mxGeometry x="470" y="530" width="140" height="30" as="geometry" />
        </mxCell>
        <mxCell id="a2WeZFBfRJ3l1TX29KsL-42" value="&lt;font style=&quot;font-size: 16px;&quot;&gt;H&lt;/font&gt;" style="rounded=0;whiteSpace=wrap;html=1;" parent="a2WeZFBfRJ3l1TX29KsL-41" vertex="1">
          <mxGeometry width="30" height="30" as="geometry" />
        </mxCell>
        <mxCell id="a2WeZFBfRJ3l1TX29KsL-43" value="&lt;span style=&quot;font-size: 16px;&quot;&gt;P&lt;/span&gt;" style="rounded=0;whiteSpace=wrap;html=1;movable=1;resizable=1;rotatable=1;deletable=1;editable=1;locked=0;connectable=1;" parent="a2WeZFBfRJ3l1TX29KsL-41" vertex="1">
          <mxGeometry x="110" width="30" height="30" as="geometry" />
        </mxCell>
        <mxCell id="a2WeZFBfRJ3l1TX29KsL-44" value="IOAM&lt;div&gt;H&lt;/div&gt;" style="rounded=0;whiteSpace=wrap;html=1;fillColor=#FFB570;" parent="a2WeZFBfRJ3l1TX29KsL-41" vertex="1">
          <mxGeometry x="30" width="40" height="30" as="geometry" />
        </mxCell>
        <mxCell id="a2WeZFBfRJ3l1TX29KsL-45" value="DEX&lt;div&gt;H&lt;/div&gt;" style="rounded=0;whiteSpace=wrap;html=1;fillColor=#FF6666;" parent="a2WeZFBfRJ3l1TX29KsL-41" vertex="1">
          <mxGeometry x="70" width="40" height="30" as="geometry" />
        </mxCell>
        <mxCell id="a2WeZFBfRJ3l1TX29KsL-46" value="" style="group;fillColor=#FF3333;strokeColor=none;" parent="1" vertex="1" connectable="0">
          <mxGeometry x="710" y="530" width="140" height="30" as="geometry" />
        </mxCell>
        <mxCell id="a2WeZFBfRJ3l1TX29KsL-47" value="&lt;font style=&quot;font-size: 16px;&quot;&gt;H&lt;/font&gt;" style="rounded=0;whiteSpace=wrap;html=1;" parent="a2WeZFBfRJ3l1TX29KsL-46" vertex="1">
          <mxGeometry width="30" height="30" as="geometry" />
        </mxCell>
        <mxCell id="a2WeZFBfRJ3l1TX29KsL-48" value="&lt;span style=&quot;font-size: 16px;&quot;&gt;P&lt;/span&gt;" style="rounded=0;whiteSpace=wrap;html=1;movable=1;resizable=1;rotatable=1;deletable=1;editable=1;locked=0;connectable=1;" parent="a2WeZFBfRJ3l1TX29KsL-46" vertex="1">
          <mxGeometry x="110" width="30" height="30" as="geometry" />
        </mxCell>
        <mxCell id="a2WeZFBfRJ3l1TX29KsL-49" value="IOAM&lt;div&gt;H&lt;/div&gt;" style="rounded=0;whiteSpace=wrap;html=1;fillColor=#FFB570;" parent="a2WeZFBfRJ3l1TX29KsL-46" vertex="1">
          <mxGeometry x="30" width="40" height="30" as="geometry" />
        </mxCell>
        <mxCell id="a2WeZFBfRJ3l1TX29KsL-50" value="DEX&lt;div&gt;H&lt;/div&gt;" style="rounded=0;whiteSpace=wrap;html=1;fillColor=#FF6666;" parent="a2WeZFBfRJ3l1TX29KsL-46" vertex="1">
          <mxGeometry x="70" width="40" height="30" as="geometry" />
        </mxCell>
        <mxCell id="a2WeZFBfRJ3l1TX29KsL-51" value="" style="endArrow=none;html=1;rounded=0;strokeWidth=2;" parent="1" edge="1">
          <mxGeometry width="50" height="50" relative="1" as="geometry">
            <mxPoint x="-10" y="470" as="sourcePoint" />
            <mxPoint x="1070" y="470" as="targetPoint" />
          </mxGeometry>
        </mxCell>
        <mxCell id="a2WeZFBfRJ3l1TX29KsL-53" value="&lt;font style=&quot;font-size: 16px;&quot;&gt;User Space&lt;/font&gt;" style="text;html=1;align=center;verticalAlign=middle;whiteSpace=wrap;rounded=0;" parent="1" vertex="1">
          <mxGeometry x="970" y="440" width="100" height="30" as="geometry" />
        </mxCell>
        <mxCell id="a2WeZFBfRJ3l1TX29KsL-54" value="&lt;font style=&quot;font-size: 16px;&quot;&gt;Kernel Space&lt;/font&gt;" style="text;html=1;align=center;verticalAlign=middle;whiteSpace=wrap;rounded=0;" parent="1" vertex="1">
          <mxGeometry x="970" y="470" width="100" height="30" as="geometry" />
        </mxCell>
        <mxCell id="a2WeZFBfRJ3l1TX29KsL-55" value="&lt;b&gt;IPFIX&lt;/b&gt;&lt;div&gt;&lt;b&gt;EXPORTER&lt;/b&gt;&lt;/div&gt;" style="rounded=0;whiteSpace=wrap;html=1;" parent="1" vertex="1">
          <mxGeometry x="130" y="386" width="100" height="50" as="geometry" />
        </mxCell>
        <mxCell id="a2WeZFBfRJ3l1TX29KsL-56" value="&lt;b&gt;IPFIX&lt;/b&gt;&lt;div&gt;&lt;b&gt;EXPORTER&lt;/b&gt;&lt;/div&gt;" style="rounded=0;whiteSpace=wrap;html=1;" parent="1" vertex="1">
          <mxGeometry x="370" y="389" width="100" height="50" as="geometry" />
        </mxCell>
        <mxCell id="a2WeZFBfRJ3l1TX29KsL-57" value="&lt;b&gt;IPFIX&lt;/b&gt;&lt;div&gt;&lt;b&gt;EXPORTER&lt;/b&gt;&lt;/div&gt;" style="rounded=0;whiteSpace=wrap;html=1;" parent="1" vertex="1">
          <mxGeometry x="610" y="389" width="100" height="50" as="geometry" />
        </mxCell>
        <mxCell id="a2WeZFBfRJ3l1TX29KsL-58" value="&lt;b&gt;IPFIX&lt;/b&gt;&lt;div&gt;&lt;b&gt;EXPORTER&lt;/b&gt;&lt;/div&gt;" style="rounded=0;whiteSpace=wrap;html=1;" parent="1" vertex="1">
          <mxGeometry x="850" y="389" width="100" height="50" as="geometry" />
        </mxCell>
        <mxCell id="a2WeZFBfRJ3l1TX29KsL-59" value="" style="endArrow=classic;html=1;rounded=0;exitX=0.5;exitY=0;exitDx=0;exitDy=0;strokeColor=#00CC00;strokeWidth=2;dashed=1;" parent="1" source="a2WeZFBfRJ3l1TX29KsL-1" target="a2WeZFBfRJ3l1TX29KsL-55" edge="1">
          <mxGeometry width="50" height="50" relative="1" as="geometry">
            <mxPoint x="110" y="530" as="sourcePoint" />
            <mxPoint x="150" y="530" as="targetPoint" />
          </mxGeometry>
        </mxCell>
        <mxCell id="a2WeZFBfRJ3l1TX29KsL-60" value="" style="endArrow=classic;html=1;rounded=0;exitX=0.5;exitY=0;exitDx=0;exitDy=0;strokeColor=#00CC00;strokeWidth=2;dashed=1;entryX=0.5;entryY=1;entryDx=0;entryDy=0;" parent="1" source="a2WeZFBfRJ3l1TX29KsL-2" target="a2WeZFBfRJ3l1TX29KsL-56" edge="1">
          <mxGeometry width="50" height="50" relative="1" as="geometry">
            <mxPoint x="190" y="490" as="sourcePoint" />
            <mxPoint x="190" y="370" as="targetPoint" />
          </mxGeometry>
        </mxCell>
        <mxCell id="a2WeZFBfRJ3l1TX29KsL-61" value="" style="endArrow=classic;html=1;rounded=0;exitX=0.5;exitY=0;exitDx=0;exitDy=0;strokeColor=#00CC00;strokeWidth=2;dashed=1;entryX=0.5;entryY=1;entryDx=0;entryDy=0;" parent="1" source="a2WeZFBfRJ3l1TX29KsL-3" target="a2WeZFBfRJ3l1TX29KsL-57" edge="1">
          <mxGeometry width="50" height="50" relative="1" as="geometry">
            <mxPoint x="430" y="490" as="sourcePoint" />
            <mxPoint x="430" y="370" as="targetPoint" />
          </mxGeometry>
        </mxCell>
        <mxCell id="a2WeZFBfRJ3l1TX29KsL-62" value="" style="endArrow=classic;html=1;rounded=0;strokeColor=#00CC00;strokeWidth=2;dashed=1;entryX=0.5;entryY=1;entryDx=0;entryDy=0;" parent="1" source="a2WeZFBfRJ3l1TX29KsL-4" target="a2WeZFBfRJ3l1TX29KsL-58" edge="1">
          <mxGeometry width="50" height="50" relative="1" as="geometry">
            <mxPoint x="670" y="490" as="sourcePoint" />
            <mxPoint x="670" y="370" as="targetPoint" />
          </mxGeometry>
        </mxCell>
        <mxCell id="a2WeZFBfRJ3l1TX29KsL-63" value="IPFIX&lt;div&gt;COLLECTOR&lt;/div&gt;" style="ellipse;shape=cloud;whiteSpace=wrap;html=1;" parent="1" vertex="1">
          <mxGeometry x="480" y="290" width="120" height="80" as="geometry" />
        </mxCell>
        <mxCell id="a2WeZFBfRJ3l1TX29KsL-64" value="" style="endArrow=classic;html=1;rounded=0;exitX=0.5;exitY=0;exitDx=0;exitDy=0;strokeColor=#FF6666;strokeWidth=2;dashed=1;entryX=0.16;entryY=0.55;entryDx=0;entryDy=0;entryPerimeter=0;" parent="1" source="a2WeZFBfRJ3l1TX29KsL-55" target="a2WeZFBfRJ3l1TX29KsL-63" edge="1">
          <mxGeometry width="50" height="50" relative="1" as="geometry">
            <mxPoint x="190" y="490" as="sourcePoint" />
            <mxPoint x="190" y="370" as="targetPoint" />
          </mxGeometry>
        </mxCell>
        <mxCell id="a2WeZFBfRJ3l1TX29KsL-65" value="" style="endArrow=classic;html=1;rounded=0;exitX=0.5;exitY=0;exitDx=0;exitDy=0;strokeColor=#FF6666;strokeWidth=2;dashed=1;entryX=0.31;entryY=0.8;entryDx=0;entryDy=0;entryPerimeter=0;" parent="1" source="a2WeZFBfRJ3l1TX29KsL-56" target="a2WeZFBfRJ3l1TX29KsL-63" edge="1">
          <mxGeometry width="50" height="50" relative="1" as="geometry">
            <mxPoint x="190" y="320" as="sourcePoint" />
            <mxPoint x="506" y="192" as="targetPoint" />
          </mxGeometry>
        </mxCell>
        <mxCell id="a2WeZFBfRJ3l1TX29KsL-66" value="" style="endArrow=classic;html=1;rounded=0;exitX=0.5;exitY=0;exitDx=0;exitDy=0;strokeColor=#FF6666;strokeWidth=2;dashed=1;entryX=0.8;entryY=0.8;entryDx=0;entryDy=0;entryPerimeter=0;" parent="1" source="a2WeZFBfRJ3l1TX29KsL-57" target="a2WeZFBfRJ3l1TX29KsL-63" edge="1">
          <mxGeometry width="50" height="50" relative="1" as="geometry">
            <mxPoint x="430" y="320" as="sourcePoint" />
            <mxPoint x="527" y="194" as="targetPoint" />
          </mxGeometry>
        </mxCell>
        <mxCell id="a2WeZFBfRJ3l1TX29KsL-67" value="" style="endArrow=classic;html=1;rounded=0;exitX=0.5;exitY=0;exitDx=0;exitDy=0;strokeColor=#FF6666;strokeWidth=2;dashed=1;entryX=0.875;entryY=0.5;entryDx=0;entryDy=0;entryPerimeter=0;" parent="1" source="a2WeZFBfRJ3l1TX29KsL-58" target="a2WeZFBfRJ3l1TX29KsL-63" edge="1">
          <mxGeometry width="50" height="50" relative="1" as="geometry">
            <mxPoint x="670" y="320" as="sourcePoint" />
            <mxPoint x="586" y="194" as="targetPoint" />
          </mxGeometry>
        </mxCell>
        <mxCell id="a2WeZFBfRJ3l1TX29KsL-68" value="&lt;font color=&quot;#3333ff&quot; style=&quot;font-size: 16px;&quot;&gt;&lt;b&gt;IPv6&lt;/b&gt;&lt;/font&gt;" style="text;html=1;align=center;verticalAlign=middle;whiteSpace=wrap;rounded=0;" parent="1" vertex="1">
          <mxGeometry x="490" y="475" width="100" height="30" as="geometry" />
        </mxCell>
        <mxCell id="a2WeZFBfRJ3l1TX29KsL-69" value="&lt;font color=&quot;#00cc00&quot; style=&quot;font-size: 16px;&quot;&gt;&lt;b style=&quot;&quot;&gt;Generic Netlink Multicast&lt;/b&gt;&lt;/font&gt;" style="text;html=1;align=center;verticalAlign=middle;whiteSpace=wrap;rounded=0;" parent="1" vertex="1">
          <mxGeometry x="437.5" y="424" width="205" height="56" as="geometry" />
        </mxCell>
        <mxCell id="a2WeZFBfRJ3l1TX29KsL-70" value="&lt;font color=&quot;#ff6666&quot; style=&quot;font-size: 16px;&quot;&gt;&lt;b style=&quot;&quot;&gt;IPFIX&lt;/b&gt;&lt;/font&gt;&lt;div&gt;&lt;font color=&quot;#ff6666&quot; style=&quot;font-size: 16px;&quot;&gt;&lt;b style=&quot;&quot;&gt;over&lt;/b&gt;&lt;/font&gt;&lt;/div&gt;&lt;div&gt;&lt;font color=&quot;#ff6666&quot; style=&quot;font-size: 16px;&quot;&gt;&lt;b style=&quot;&quot;&gt;UDP/TCP&lt;/b&gt;&lt;/font&gt;&lt;/div&gt;" style="text;html=1;align=center;verticalAlign=middle;whiteSpace=wrap;rounded=0;" parent="1" vertex="1">
          <mxGeometry x="490" y="370" width="100" height="56" as="geometry" />
        </mxCell>
      </root>
    </mxGraphModel>
  </diagram>
</mxfile>
